<svg width="46" height="48" viewBox="0 0 46 48" fill="none" xmlns="http://www.w3.org/2000/svg">
<g clip-path="url(#clip0_1_16026)">
<path d="M35.4583 44.4785C35.9375 44.0957 36.3368 43.7895 36.6562 43.4067C33.1424 42.1818 29.8681 40.8804 26.8333 39.5789L23.8785 44.555C25.7153 45.3971 27.7118 46.1627 29.7882 47.0048C31.7847 46.3923 33.7014 45.5502 35.4583 44.4785ZM37.2153 42.6412C39.3715 39.5024 36.8958 35.9043 31.1458 32.5359L27.3125 38.8134C30.4271 40.1148 33.7014 41.4163 37.2153 42.6412ZM30.2674 32.0766C27.7917 30.6986 24.6771 29.3206 21.1632 28.0191L17.6493 33.9139C20.2847 35.445 23.2396 36.9761 26.5139 38.4306L30.2674 32.0766ZM20.2847 27.7129C19.8056 27.5598 19.3264 27.4067 18.8472 27.2536C15.8924 26.2584 13.4965 25.1101 11.5799 23.7321L9.10417 27.866C11.2604 29.7799 13.8958 31.6172 16.8507 33.4545L20.2847 27.7129ZM10.8611 23.1962C6.14931 19.3684 5.27083 14.3158 8.78472 8.49761C5.43056 11.0239 2.875 14.3923 1.35764 18.2201C2.95486 21.3589 5.27083 24.4211 8.38542 27.2536L10.8611 23.1962ZM0.958333 19.445C0.319444 21.512 0 23.6555 0 25.8756C0 26.2584 0 26.6411 0 27.0239C1.27778 29.0144 2.95486 30.9282 4.95139 32.8421L7.90625 28.0191C4.87153 25.3397 2.55556 22.4306 0.958333 19.445ZM0.159722 28.9378C0.559028 31.6172 1.4375 34.1435 2.71528 36.4402L4.47222 33.6077C2.79514 32.0766 1.35764 30.5455 0.159722 28.9378ZM3.27431 37.3589C5.03125 40.1148 7.42708 42.488 10.3021 44.3254L12.9375 39.8852C9.98264 38.1244 7.34722 36.2105 5.19097 34.2967L3.27431 37.3589ZM11.1007 44.7847C13.9757 46.4689 17.25 47.5407 20.7639 47.8469L22.5208 44.9378C19.3264 43.4833 16.3715 41.9522 13.7361 40.4211L11.1007 44.7847ZM21.8021 47.9234C22.2014 47.9234 22.6007 48 23 48C24.8368 48 26.5938 47.7703 28.2708 47.3876C26.5938 46.6986 24.9965 46.0096 23.3993 45.3206L21.8021 47.9234ZM5.67014 33.4545C7.82639 35.445 10.4618 37.2823 13.4167 39.1196L16.3715 34.2201C13.4167 32.4593 10.8611 30.622 8.625 28.6316L5.67014 33.4545ZM14.2153 39.5789C16.8507 41.1866 19.8056 42.7177 23 44.1723L26.0347 39.1962C22.7604 37.7416 19.8056 36.2105 17.1701 34.6794L14.2153 39.5789Z" fill="#86BB46"/>
<path d="M12.1397 15.7703L10.3827 7.50239C10.3028 7.6555 10.223 7.80861 10.1431 8.03828C9.42438 9.56938 9.26465 11.177 9.50424 12.7847L12.1397 15.7703Z" fill="#FEC51B"/>
<path d="M11.2609 6.88997L13.6567 15.311L16.1324 4.82299C14.6949 5.20576 13.3372 5.74165 12.0595 6.43064L9.50391 0.459351L11.2609 6.88997Z" fill="#FEC51B"/>
<path d="M17.4905 4.44019L15.4141 15.6172L25.3168 3.90431C24.5981 3.82775 23.7995 3.82775 23.0009 3.82775C21.4036 3.82775 19.8064 3.98086 18.2891 4.28708L18.0495 1.60765L17.4905 4.44019Z" fill="#FEC51B"/>
<path d="M36.0182 7.6555C33.3828 5.89474 30.2682 4.66986 26.9141 4.13397L29.0703 0L26.1155 3.98086L16.8516 16.5359L36.0182 7.6555Z" fill="#FEC51B"/>
<path d="M46.0013 25.8756C46.0013 18.9091 42.6471 12.7081 37.4562 8.72727L37.3763 8.65072L38.8937 6.88995L36.6576 8.11483L17.3312 18.067L35.2201 18.3732L17.6506 19.5981L32.9839 27.2536L17.0117 21.1292L19.727 23.9617C21.1645 24.5742 22.602 25.1101 24.1992 25.5694C38.8937 29.7034 43.8451 34.9857 39.7721 40.9569C43.6853 37.0526 46.0013 31.6938 46.0013 25.8756Z" fill="#FEC51B"/>
</g>
<defs>
<clipPath id="clip0_1_16026">
<rect width="46" height="48" fill="white"/>
</clipPath>
</defs>
</svg>
