<svg width="212" height="40" viewBox="0 0 212 40" fill="none" xmlns="http://www.w3.org/2000/svg">
<path d="M27.5026 3.32031C10.1901 22.1616 5.17676 35.5795 5.17676 35.5795C8.93679 39.9918 15.3456 39.6202 15.3456 39.6202C22.1003 39.8334 26.2375 35.5979 26.2375 35.5979C34.6317 27.0478 33.5981 2.7658 33.5981 2.7658C31.9013 -0.969237 27.5026 3.32031 27.5026 3.32031Z" fill="#86BB46"/>
<path d="M0.794852 18.0547C0.794852 18.0547 -1.85348 23.4103 2.51805 32.4223L14.1361 6.59912C14.0033 6.64741 3.65767 10.2977 0.794852 18.0547Z" fill="#86BB46"/>
<path d="M160.736 34.7816C160.022 34.8438 159.317 34.8438 158.619 34.6539C157.457 34.349 156.755 33.6128 156.544 32.4109C156.43 31.741 156.465 31.083 156.586 30.4249C156.917 28.5601 157.264 26.6956 157.611 24.8307C158.229 21.4431 158.855 18.049 159.479 14.661C159.501 14.5087 159.542 14.3561 159.576 14.1981C162.66 14.1981 165.715 14.1981 168.765 14.1981C169.139 13.4247 170.642 9.63401 170.658 9.40893C170.082 9.40893 169.504 9.40893 168.928 9.40893C168.343 9.40893 167.765 9.40893 167.189 9.40893C166.607 9.40893 166.029 9.40893 165.444 9.40893C164.873 9.40893 164.29 9.40893 163.705 9.40893C163.135 9.40893 162.552 9.40893 161.973 9.40893C161.398 9.40893 160.826 9.42079 160.208 9.40238C160.816 6.27055 161.412 3.17554 162.009 0.0854492C161.994 0.0854492 161.973 0.0854492 161.958 0.0854492C161.911 0.121871 161.867 0.164433 161.816 0.182849C161.15 0.523737 160.485 0.853167 159.816 1.18833C158.385 1.9012 156.957 2.62022 155.522 3.32736C155.36 3.41248 155.287 3.51602 155.275 3.68667C155.254 3.8696 155.224 4.04638 155.196 4.2289C154.961 5.72177 154.73 7.21423 154.494 8.70751C154.274 10.0968 154.053 11.4862 153.84 12.8694C153.608 14.3557 153.374 15.8432 153.147 17.3234C152.927 18.7066 152.716 20.0894 152.502 21.4669C152.261 22.9778 152.026 24.4833 151.794 25.988C151.571 27.3712 151.361 28.7544 151.143 30.1323C151.062 30.6246 150.957 31.1128 150.929 31.6072C150.871 32.5513 150.956 33.4782 151.176 34.3908C151.691 36.5175 152.959 37.9805 154.998 38.7421C155.996 39.1206 157.035 39.279 158.093 39.315C159.064 39.3518 160.028 39.2901 160.985 39.1452C161.486 39.0781 161.991 38.9754 162.504 38.8829C162.863 37.3352 163.218 35.8006 163.585 34.2348C163.471 34.2594 163.408 34.2713 163.344 34.2897C162.489 34.5209 161.618 34.7091 160.736 34.7816Z" fill="#86BB46"/>
<path d="M211.468 10.6398C211.257 10.6214 211.127 10.7008 211.01 10.8833C210.163 12.1932 209.301 13.4974 208.449 14.7955C208.405 14.8569 208.358 14.9109 208.292 15.0026C208.259 14.8925 208.23 14.8197 208.207 14.7464C207.988 14.0155 207.772 13.2904 207.549 12.5648C207.381 12.0046 207.207 11.4497 207.037 10.8833C207.011 10.792 206.983 10.7004 206.862 10.7004C206.621 10.7065 206.381 10.7065 206.12 10.7065C205.699 12.5407 205.284 14.3744 204.864 16.227C205.154 16.227 205.407 16.227 205.687 16.227C205.982 15.0505 206.276 13.8748 206.57 12.699C206.591 12.6925 206.613 12.6925 206.633 12.6925C206.983 13.9054 207.328 15.1176 207.685 16.3428C207.874 16.3428 208.055 16.3367 208.237 16.3494C208.405 16.3559 208.512 16.3007 208.611 16.148C209.313 15.0816 210.031 14.0217 210.748 12.9552C210.79 12.8881 210.844 12.8214 210.889 12.7539C210.91 12.7604 210.932 12.7604 210.944 12.7723C210.851 13.9177 210.76 15.0697 210.671 16.2336C210.975 16.2336 211.24 16.2336 211.521 16.2336C211.524 16.1787 211.532 16.1484 211.542 16.1181C211.65 14.5516 211.753 12.992 211.858 11.4321C211.867 11.3592 211.894 11.286 211.912 11.207C211.912 11.0179 211.912 10.8231 211.912 10.6279C211.769 10.6398 211.618 10.6582 211.468 10.6398Z" fill="#86BB46"/>
<path d="M140.868 8.35488C139.5 8.2452 138.137 8.27017 136.782 8.44041C134.908 8.6839 133.113 9.20157 131.389 9.97583C129.192 10.969 127.232 12.3219 125.405 13.8938C123.872 15.2222 122.534 16.7216 121.488 18.4702C119.573 21.6757 118.605 25.1239 118.859 28.8896C118.956 30.3276 119.255 31.7223 119.801 33.0568C121.079 36.153 123.239 38.3154 126.413 39.3884C126.846 39.5349 127.293 39.6687 127.74 39.724C128.853 39.852 129.964 39.834 131.075 39.6933C132.775 39.4739 134.378 38.9505 135.861 38.0789C138.105 36.757 139.774 34.8861 140.901 32.5285C140.941 32.4425 140.982 32.3701 141.018 32.2899C141.036 32.296 141.054 32.3018 141.073 32.3083C140.591 34.5325 140.108 36.757 139.621 38.9935C141.489 38.9935 143.333 38.9935 145.193 38.9935C146.862 29.6704 148.528 20.3588 150.194 11.0243C149.869 10.872 149.57 10.7313 149.266 10.604C146.577 9.42706 143.803 8.59878 140.868 8.35488ZM143.576 15.6793C143.296 18.6102 142.579 21.4498 141.78 24.2772C140.976 27.1164 139.5 29.5419 137.486 31.6437C136.318 32.8685 134.973 33.8552 133.379 34.4588C132.474 34.8054 131.54 34.9888 130.568 34.9822C130.033 34.9757 129.496 35.0006 128.979 34.8357C126.742 34.1474 125.298 32.6545 124.615 30.4185C124.339 29.4924 124.262 28.5287 124.326 27.567C124.452 25.6354 125.037 23.8381 125.828 22.089C126.126 21.4306 126.461 20.7725 126.817 20.1329C127.254 19.3648 127.827 18.6945 128.443 18.0733C130.724 15.7701 133.445 14.2772 136.605 13.6311C138.877 13.1805 141.125 13.3025 143.321 14.0878C143.427 14.1307 143.529 14.1676 143.674 14.2216C143.643 14.7168 143.622 15.1976 143.576 15.6793Z" fill="#86BB46"/>
<path d="M194.486 11.4259C192.187 9.44568 189.489 8.46476 186.49 8.28183C184.351 8.15415 182.245 8.43406 180.217 9.15308C175.014 10.9934 171.178 14.4182 168.753 19.4145C167.636 21.6992 167.084 24.1301 167.062 26.5863C167.069 27.7558 167.159 28.8227 167.409 29.8707C168.364 33.8918 170.648 36.8534 174.347 38.645C176.653 39.7602 179.104 40.1068 181.645 39.9124C183.299 39.7905 184.905 39.4127 186.454 38.8161C189.207 37.7676 191.591 36.1467 193.634 34.0085C195.67 31.887 197.183 29.4382 198.084 26.6239C198.952 23.9242 199.183 21.1701 198.569 18.3792C197.96 15.6119 196.617 13.2781 194.486 11.4259ZM190.971 28.4384C189.504 30.8512 187.517 32.6977 184.969 33.8918C183.528 34.5622 182.01 34.9108 180.424 34.867C177.142 34.7758 174.47 32.8012 173.477 29.5168C173.101 28.2739 173.012 27.0008 173.143 25.7085C173.477 22.557 174.83 19.9072 176.988 17.6462C178.377 16.1836 180.007 15.0746 181.899 14.3732C183.244 13.8735 184.637 13.63 186.071 13.7823C189.12 14.1113 191.226 15.72 192.353 18.6083C192.762 19.6625 192.909 20.7654 192.917 21.9292C192.878 24.2586 192.197 26.4398 190.971 28.4384Z" fill="#86BB46"/>
<path d="M63.1219 15.8435C63.0677 15.2219 63.0102 14.6064 62.8321 14.0093C62.1632 11.7545 60.7803 10.1458 58.6144 9.24428C57.5958 8.81745 56.5322 8.61039 55.4388 8.54287C54.0616 8.45775 52.6969 8.59197 51.344 8.87843C49.0389 9.36541 46.8847 10.2428 44.8572 11.4373C42.6034 12.7596 40.6115 14.4169 38.9818 16.4827C37.7888 17.9936 36.866 19.651 36.3181 21.5097C36.083 22.3016 35.9535 23.1061 35.8422 23.9225C35.728 24.7692 35.5888 25.6106 35.5378 26.47C35.4415 28.0971 35.5467 29.7 35.981 31.2727C36.8005 34.265 38.5601 36.4949 41.3262 37.8711C42.86 38.6327 44.4962 39.0047 46.1858 39.1508C47.6953 39.2797 49.1927 39.1999 50.6844 38.9924C52.4165 38.7428 54.1069 38.3229 55.7702 37.7684C56.2522 37.6031 56.7281 37.4333 57.2166 37.2626C57.4339 35.3793 57.6504 33.5206 57.8734 31.6197C57.7743 31.6746 57.7168 31.7048 57.6597 31.7417C55.427 33.2779 52.9746 34.2355 50.2809 34.5142C49.0879 34.6362 47.9009 34.5875 46.7313 34.29C45.4266 33.9474 44.2849 33.3332 43.3663 32.3273C42.4533 31.3279 41.9231 30.1215 41.6277 28.805C41.6216 28.7752 41.6394 28.7437 41.6459 28.7019C41.7572 28.695 41.8568 28.6835 41.9652 28.6835C43.0834 28.6287 44.2068 28.5861 45.3278 28.5186C47.274 28.4155 49.2024 28.2141 51.1215 27.8855C52.6221 27.6232 54.1012 27.2819 55.5416 26.7822C56.9576 26.2891 58.2951 25.6614 59.5059 24.7598C61.3319 23.395 62.51 21.603 62.9649 19.3363C63.1939 18.1774 63.2235 17.0078 63.1219 15.8435ZM57.2668 18.9328C56.9928 20.0177 56.3781 20.8705 55.5403 21.5777C54.739 22.2664 53.82 22.7411 52.8434 23.1127C51.6111 23.596 50.3335 23.882 49.0316 24.0637C47.5253 24.2769 46.0187 24.3559 44.5063 24.3076C43.6747 24.2769 42.8491 24.2098 42.0235 24.1554C41.9636 24.1554 41.9033 24.13 41.8066 24.112C41.843 23.9721 41.8697 23.8505 41.9033 23.7408C42.512 21.6996 43.548 19.8953 44.9705 18.33C46.5913 16.5323 48.5136 15.1609 50.7856 14.3326C51.792 13.9672 52.8285 13.736 53.9037 13.772C54.4371 13.7839 54.9523 13.8755 55.444 14.083C56.3477 14.4485 56.9321 15.113 57.1915 16.0571C57.4505 17.0078 57.5112 17.9695 57.2668 18.9328Z" fill="#86BB46"/>
<path d="M88.9664 9.34796C87.8243 8.86671 86.6276 8.61094 85.3925 8.54382C83.9279 8.4587 82.4759 8.58065 81.042 8.90926C78.4657 9.49487 76.3233 10.7987 74.6664 12.8886C74.0222 13.705 73.4799 14.5886 73.0153 15.515C72.9853 15.576 72.9489 15.6362 72.9161 15.6976C72.9007 15.6857 72.889 15.6796 72.8769 15.6726C73.2018 13.6314 73.5272 11.5963 73.8591 9.53088C71.8825 9.53088 69.942 9.53088 67.9833 9.53088C66.3143 19.3598 64.6482 29.1755 62.9756 39.0118C64.9072 39.0118 66.7959 39.0118 68.685 39.0118C68.7065 38.932 68.73 38.8645 68.7397 38.7986C69.0889 36.7316 69.4232 34.6543 69.785 32.5942C70.1464 30.5649 70.592 28.5543 71.1856 26.581C71.8757 24.2783 72.7555 22.0472 74.0145 19.9875C75.4515 17.6353 77.3828 15.8134 79.836 14.5767C81.2881 13.8454 82.8247 13.4431 84.4641 13.5651C85.0489 13.6076 85.6029 13.7533 86.1303 14.0165C86.7413 14.3271 87.1695 14.8144 87.422 15.4545C87.5637 15.8261 87.6398 16.2099 87.6871 16.6003C87.8017 17.5812 87.7175 18.5626 87.5609 19.5247C87.2294 21.5234 86.8737 23.522 86.5277 25.5158C86.157 27.6593 85.7806 29.7996 85.4103 31.9374C84.9999 34.2954 84.5908 36.6473 84.1808 39.0052C84.1744 39.0724 84.1744 39.1386 84.1687 39.2184C86.1096 39.2184 88.0315 39.2184 89.966 39.2184C89.9842 39.1386 90.0024 39.0724 90.0141 39.0052C90.261 37.6585 90.5111 36.3133 90.7612 34.9653C91.1679 32.7473 91.575 30.5342 91.987 28.3239C92.3727 26.2156 92.7584 24.1126 93.1505 22.0046C93.3941 20.7131 93.641 19.4154 93.6718 18.0866C93.7045 16.7526 93.6082 15.4361 93.2315 14.1511C92.5576 11.8766 91.1408 10.2683 88.9664 9.34796Z" fill="#86BB46"/>
<path d="M123.019 9.26883C122.89 9.26883 122.798 9.26883 122.707 9.26883C120.874 9.26883 119.044 9.26883 117.212 9.2627C117.001 9.2627 116.892 9.3294 116.79 9.51233C114.615 13.4671 112.43 17.4154 110.246 21.3698C108.775 24.0261 107.305 26.6893 105.835 29.353C105.793 29.4328 105.744 29.5122 105.696 29.585C105.681 29.5773 105.663 29.5728 105.648 29.5666C104.183 22.8577 102.716 16.1545 101.249 9.44604C99.3293 9.44604 97.4345 9.44604 95.5146 9.44604C97.9343 19.5123 100.351 29.5666 102.773 39.6509C102.891 39.6509 102.975 39.6509 103.063 39.6509C103.617 39.6509 104.169 39.6386 104.721 39.6509C104.923 39.6566 105.028 39.5891 105.131 39.418C106.299 37.4259 107.482 35.4464 108.664 33.4588C113.389 25.5071 118.114 17.5549 122.841 9.59663C122.893 9.50005 122.947 9.40265 123.019 9.26883Z" fill="#86BB46"/>
<path d="M205.221 10.7007C203.812 10.7007 202.426 10.7007 201.019 10.7007C200.97 10.9933 200.916 11.2855 200.855 11.5969C201.157 11.5969 201.409 11.5969 201.674 11.6026C201.936 11.6092 202.198 11.5723 202.473 11.6333C202.19 13.1626 201.908 14.6796 201.624 16.2089C201.969 16.2089 202.283 16.2089 202.599 16.2089C202.891 14.6673 203.174 13.1442 203.467 11.6022C204.013 11.5904 204.528 11.6088 205.045 11.5903C205.11 11.2793 205.168 10.9929 205.221 10.7007Z" fill="#86BB46"/>
</svg>
