<svg width="200" height="40" viewBox="0 0 200 40" fill="none" xmlns="http://www.w3.org/2000/svg">
<g clip-path="url(#clip0_1_16289)">
<path d="M23.2031 7.66674L11.5984 15.102L23.2031 22.5373L11.5984 29.9726L0 22.4785L11.6047 15.0432L0 7.66674L11.6047 0.231445L23.2031 7.66674ZM11.543 32.3318L23.1477 24.8965L34.7523 32.3318L23.1484 39.7609L11.5437 32.3256L11.543 32.3318ZM23.2031 22.4785L34.8078 15.0432L23.2031 7.66674L34.7531 0.231445L46.3578 7.66674L34.7531 15.102L46.3578 22.5373L34.7531 29.9726L23.2102 22.4746L23.2031 22.4785Z" fill="#86BB46"/>
<path d="M55.4316 7.66653H64.8066C70.7941 7.66653 75.7324 11.1371 75.7324 19.0689V20.7418C75.7324 28.7363 71.1027 32.3301 64.9918 32.3301H55.4316V7.66653ZM60.6785 12.1371V27.8234H64.691C68.0863 27.8234 70.3707 25.5928 70.3707 20.6352V19.3332C70.3707 14.3763 67.9645 12.145 64.5066 12.145H60.6785V12.1371ZM78.5184 12.385H82.716L83.3957 17.0328C84.198 13.872 86.2355 12.1991 89.9387 12.1991H91.2355V17.5285H89.0754C84.816 17.5285 83.7668 19.0155 83.7668 23.2305V32.4022H78.5816V12.3865H78.5191L78.5184 12.385ZM92.284 22.7959V22.2469C92.284 15.5544 96.5434 11.8979 102.346 11.8979C108.272 11.8979 112.409 15.5544 112.409 22.2469V22.7959C112.409 29.3646 108.396 32.8979 102.346 32.8979C95.9269 32.8352 92.284 29.3654 92.284 22.7959ZM107.099 22.7332V22.2375C107.099 18.5199 105.247 16.2885 102.284 16.2885C99.3824 16.2885 97.4691 18.3332 97.4691 22.2375V22.7332C97.4691 26.3277 99.3207 28.3803 102.284 28.3803C105.247 28.3175 107.099 26.3356 107.099 22.7332ZM115.124 12.3842H119.444L119.938 16.1646C120.987 13.6234 123.21 11.8885 126.481 11.8885C131.543 11.8885 134.876 15.545 134.876 22.2995V22.8485C134.876 29.4171 131.173 32.8877 126.481 32.8877C123.332 32.8877 121.172 31.4626 120.123 29.1701V39.272H115.061L115.123 12.3701L115.124 12.3842ZM129.63 22.7332V22.2995C129.63 18.3332 127.593 16.3505 124.877 16.3505C121.975 16.3505 120.062 18.581 120.062 22.2995V22.6712C120.062 26.2038 121.914 28.4344 124.815 28.4344C127.779 28.3716 129.63 26.4524 129.63 22.7332ZM142.532 28.6822L142.1 32.3387H137.646V5.68457H142.709V15.9175C143.82 13.3136 146.043 11.8893 149.19 11.8893C153.943 11.952 157.462 15.2359 157.462 21.8657V22.4932C157.462 29.1238 154.129 32.9042 149.067 32.9042C145.733 32.8414 143.573 31.2932 142.524 28.6901L142.532 28.6822ZM152.161 22.4861V21.9905C152.161 18.334 150.186 16.2885 147.408 16.2885C144.568 16.2885 142.593 18.581 142.593 22.0516V22.4854C142.593 26.203 144.507 28.3724 147.346 28.3724C150.371 28.3724 152.161 26.4516 152.161 22.4861ZM159.693 22.7959V22.2469C159.693 15.5544 163.952 11.8979 169.755 11.8979C175.681 11.8979 179.818 15.5544 179.818 22.2469V22.7959C179.818 29.3646 175.743 32.8979 169.755 32.8979C163.336 32.8352 159.693 29.3654 159.693 22.7959ZM174.569 22.7332V22.2375C174.569 18.5199 172.718 16.2885 169.754 16.2885C166.853 16.2885 164.939 18.3332 164.939 22.2375V22.7332C164.939 26.3277 166.791 28.3803 169.754 28.3803C172.718 28.3175 174.569 26.3356 174.569 22.7332ZM186.606 21.9897L179.631 12.3842H185.618L189.631 18.3952L193.705 12.3842H199.631L192.532 21.9277L200 32.3316H194.136L189.568 25.701L185.114 32.3316H179.004L186.597 21.9826L186.606 21.9897Z" fill="#86BB46"/>
</g>
<defs>
<clipPath id="clip0_1_16289">
<rect width="200" height="40" fill="white"/>
</clipPath>
</defs>
</svg>
