<svg width="160" height="40" viewBox="0 0 160 40" fill="none" xmlns="http://www.w3.org/2000/svg">
<path d="M51.664 15.7019C51.664 12.846 48.8729 9.81275 44.0431 9.81275C38.6193 9.81275 32.6611 13.7717 31.7506 21.6698C30.8202 29.6468 35.8085 33.1921 40.8363 33.1921C45.8642 33.1921 48.4968 31.2422 51.1889 28.6423C48.8729 25.7469 45.884 27.0863 45.3099 27.3817C44.6765 27.6969 43.8649 28.1302 42.2022 28.1302C40.2623 28.1302 38.2828 27.2635 38.2828 23.6591C50.7138 22.438 51.664 18.5578 51.664 15.7019ZM45.5079 16.1746C45.4287 17.0609 45.0724 18.5775 38.7777 19.4245C40.1039 14.7368 42.6376 14.3823 43.8055 14.3823C44.8942 14.3823 45.587 15.2292 45.5079 16.1746ZM24.4464 16.9428C24.4464 16.9428 21.7741 25.2939 21.5564 25.9833C21.4772 25.2742 19.5175 10.2855 19.5175 10.2855C14.9647 10.2855 12.53 13.5156 11.2434 16.9231C11.2434 16.9231 7.99703 25.2939 7.71991 26.003C7.70011 25.353 7.22504 17.0215 7.22504 17.0215C6.94792 12.846 3.10776 10.3052 0 10.3052L3.76098 33.0148C8.53149 32.9951 11.1048 29.7846 12.4508 26.3772C12.4508 26.3772 15.321 18.9912 15.4398 18.6563C15.4596 18.9715 17.4985 33.0148 17.4985 33.0148C22.2888 33.0148 24.8621 30.0013 26.2477 26.712L32.9581 10.3052C28.2271 10.3052 25.733 13.5156 24.4464 16.9428ZM69.2416 9.77335C66.2922 9.77335 64.0356 11.3687 62.1353 13.7126V13.6929L63.8377 0.043457C59.9184 0.043457 56.7314 3.43119 56.1178 8.47341L53.1486 32.8375C55.4052 32.8375 57.8003 32.1876 59.087 30.5331C60.2351 32.0103 61.9572 33.1921 64.5107 33.1921C71.1221 33.1921 75.6551 25.55 75.6551 18.3806C75.6155 11.8415 72.4286 9.77335 69.2416 9.77335ZM68.628 21.4926C67.9352 25.4909 65.6984 28.209 63.5408 28.209C61.3634 28.209 60.433 27.2438 60.433 27.2438C60.8487 23.7379 61.106 21.591 61.8978 19.7396C62.6896 17.8882 64.5701 14.9337 66.5298 14.9337C68.4498 14.9337 69.3208 17.4746 68.628 21.4926ZM92.1638 10.3052H87.5517L87.5714 10.0688C87.8882 7.07498 88.6008 5.49929 90.9563 5.24324C92.5597 5.08567 93.2723 4.25843 93.4505 3.35241C93.589 2.64335 94.0245 0.18133 94.0245 0.18133C84.7606 0.122242 81.8508 4.10086 81.0986 10.1673L81.0788 10.3052H80.9798C79.4754 10.3052 77.8127 11.999 77.5356 14.1459L77.4366 14.9337H80.5246L77.9315 36.245L77.1397 40.066C77.2386 40.066 77.3574 40.0857 77.4564 40.0857C81.7914 39.9282 84.5627 36.5207 85.1763 31.577L87.1954 14.9337H88.6404C90.0656 14.9337 91.7283 13.5156 92.0252 11.1521L92.1638 10.3052ZM116.155 9.91123C110.83 9.91123 105.802 13.8111 104.258 19.9366C102.714 26.0621 105.05 33.3103 112.889 33.3103C120.708 33.3103 125.221 25.7666 125.221 19.4836C125.221 13.2399 120.965 9.91123 116.155 9.91123ZM118.313 21.2956C118.035 24.0728 116.808 28.2877 113.443 28.2877C110.058 28.2877 110.533 23.3637 110.87 21.0199C111.226 18.5184 112.631 14.9534 115.66 14.9534C118.372 14.9534 118.629 18.1639 118.313 21.2956ZM151.528 16.9428C151.528 16.9428 148.856 25.2939 148.638 25.9833C148.559 25.2742 146.599 10.2855 146.599 10.2855C142.046 10.2855 139.612 13.5156 138.325 16.9231C138.325 16.9231 135.079 25.2939 134.801 26.003C134.782 25.353 134.307 17.0215 134.307 17.0215C134.029 12.846 130.189 10.3052 127.082 10.3052L130.823 33.0148C135.593 32.9951 138.167 29.7846 139.513 26.3772C139.513 26.3772 142.383 18.9912 142.482 18.6563C142.502 18.9715 144.54 33.0148 144.54 33.0148C149.331 33.0148 151.904 30.0013 153.29 26.712L160 10.3052C155.289 10.3052 152.795 13.5156 151.528 16.9428ZM96.5186 0.18133L92.6389 31.3209L91.8471 35.1617C91.9461 35.1617 92.0648 35.1814 92.1638 35.1814C96.3405 35.1223 99.3097 31.4785 99.8639 26.8893L102.101 9.0249C102.774 3.56907 99.5076 0.18133 96.5186 0.18133Z" fill="#86BB46"/>
</svg>
